{
  "accessors": [
    {
      "bufferView": 2,
      "componentType": 5126,
      "count": 3576,
      "max": [
        62.5,
        32.5,
        27.999996185302734
      ],
      "min": [
        -62.5,
        -32.5,
        -27.999996185302734
      ],
      "type": "VEC3"
    },
    {
      "bufferView": 2,
      "byteOffset": 42912,
      "componentType": 5126,
      "count": 3576,
      "type": "VEC3"
    },
    {
      "bufferView": 3,
      "componentType": 5126,
      "count": 3576,
      "type": "VEC4"
    },
    {
      "bufferView": 1,
      "componentType": 5126,
      "count": 3576,
      "type": "VEC2"
    },
    {
      "bufferView": 0,
      "componentType": 5125,
      "count": 4884,
      "type": "SCALAR"
    },
    {
      "bufferView": 2,
      "byteOffset": 85824,
      "componentType": 5126,
      "count": 2776,
      "max": [
        31.558990478515625,
        25.73248291015625,
        18.3779296875
      ],
      "min": [
        -32.14031982421875,
        -24.370773315429688,
        11.33966064453125
      ],
      "type": "VEC3"
    },
    {
      "bufferView": 2,
      "byteOffset": 119136,
      "componentType": 5126,
      "count": 2776,
      "type": "VEC3"
    },
    {
      "bufferView": 3,
      "byteOffset": 57216,
      "componentType": 5126,
      "count": 2776,
      "type": "VEC4"
    },
    {
      "bufferView": 1,
      "byteOffset": 28608,
      "componentType": 5126,
      "count": 2776,
      "type": "VEC2"
    },
    {
      "bufferView": 0,
      "byteOffset": 19536,
      "componentType": 5125,
      "count": 9744,
      "type": "SCALAR"
    },
    {
      "bufferView": 2,
      "byteOffset": 152448,
      "componentType": 5126,
      "count": 1312,
      "max": [
        41.2908935546875,
        33.41912841796875,
        28.18316650390625
      ],
      "min": [
        -41.2908935546875,
        -33.41912841796875,
        -28.18316078186035
      ],
      "type": "VEC3"
    },
    {
      "bufferView": 2,
      "byteOffset": 168192,
      "componentType": 5126,
      "count": 1312,
      "type": "VEC3"
    },
    {
      "bufferView": 3,
      "byteOffset": 101632,
      "componentType": 5126,
      "count": 1312,
      "type": "VEC4"
    },
    {
      "bufferView": 1,
      "byteOffset": 50816,
      "componentType": 5126,
      "count": 1312,
      "type": "VEC2"
    },
    {
      "bufferView": 0,
      "byteOffset": 58512,
      "componentType": 5125,
      "count": 3372,
      "type": "SCALAR"
    },
    {
      "bufferView": 2,
      "byteOffset": 183936,
      "componentType": 5126,
      "count": 818,
      "max": [
        50.37269592285156,
        30.0,
        20.000001907348633
      ],
      "min": [
        -50.37269592285156,
        -30.0,
        -20.000001907348633
      ],
      "type": "VEC3"
    },
    {
      "bufferView": 2,
      "byteOffset": 193752,
      "componentType": 5126,
      "count": 818,
      "type": "VEC3"
    },
    {
      "bufferView": 3,
      "byteOffset": 122624,
      "componentType": 5126,
      "count": 818,
      "type": "VEC4"
    },
    {
      "bufferView": 1,
      "byteOffset": 61312,
      "componentType": 5126,
      "count": 818,
      "type": "VEC2"
    },
    {
      "bufferView": 0,
      "byteOffset": 72000,
      "componentType": 5125,
      "count": 1152,
      "type": "SCALAR"
    },
    {
      "bufferView": 2,
      "byteOffset": 203568,
      "componentType": 5126,
      "count": 284,
      "max": [
        60.0,
        30.0,
        19.994741439819336
      ],
      "min": [
        -60.0,
        -30.0,
        16.904741287231445
      ],
      "type": "VEC3"
    },
    {
      "bufferView": 2,
      "byteOffset": 206976,
      "componentType": 5126,
      "count": 284,
      "type": "VEC3"
    },
    {
      "bufferView": 3,
      "byteOffset": 135712,
      "componentType": 5126,
      "count": 284,
      "type": "VEC4"
    },
    {
      "bufferView": 1,
      "byteOffset": 67856,
      "componentType": 5126,
      "count": 284,
      "type": "VEC2"
    },
    {
      "bufferView": 0,
      "byteOffset": 76608,
      "componentType": 5125,
      "count": 468,
      "type": "SCALAR"
    }
  ],
  "asset": {
    "version": "2.0"
  },
  "bufferViews": [
    {
      "buffer": 0,
      "byteLength": 78480,
      "target": 34963
    },
    {
      "buffer": 0,
      "byteLength": 70128,
      "byteOffset": 78480,
      "byteStride": 8,
      "target": 34962
    },
    {
      "buffer": 0,
      "byteLength": 210384,
      "byteOffset": 148608,
      "byteStride": 12,
      "target": 34962
    },
    {
      "buffer": 0,
      "byteLength": 140256,
      "byteOffset": 358992,
      "byteStride": 16,
      "target": 34962
    }
  ],
  "buffers": [
    {
      "byteLength": 499248,
      "uri": "scene.bin"
    }
  ],
  "images": [
    {
      "uri": "textures/Table_2_1_BaseColor.jpeg"
    },
    {
      "uri": "textures/Table_2_1_ORM.jpeg"
    },
    {
      "uri": "textures/Table_2_1_Normal.jpeg"
    },
    {
      "uri": "textures/Table_3_BaseColor.jpeg"
    },
    {
      "uri": "textures/Table_3_ORM.jpeg"
    },
    {
      "uri": "textures/Table_3_Normal.jpeg"
    },
    {
      "uri": "textures/Table_1_1_BaseColor.jpeg"
    },
    {
      "uri": "textures/Table_1_1_ORM.jpeg"
    },
    {
      "uri": "textures/Table_1_1_Normal.jpeg"
    },
    {
      "uri": "textures/Table_2_2_BaseColor.jpeg"
    },
    {
      "uri": "textures/Table_2_2_ORM.jpeg"
    },
    {
      "uri": "textures/Table_2_2_Normal.jpeg"
    },
    {
      "uri": "textures/Table_1_2_BaseColor.jpeg"
    },
    {
      "uri": "textures/Table_1_2_ORM.jpeg"
    },
    {
      "uri": "textures/Table_1_2_Normal.jpeg"
    }
  ],
  "materials": [
    {
      "doubleSided": true,
      "name": "Table_2_1",
      "normalTexture": {
        "index": 2
      },
      "pbrMetallicRoughness": {
        "baseColorTexture": {
          "index": 0
        },
        "metallicRoughnessTexture": {
          "index": 1
        }
      }
    },
    {
      "doubleSided": true,
      "name": "Table_3",
      "normalTexture": {
        "index": 5
      },
      "pbrMetallicRoughness": {
        "baseColorTexture": {
          "index": 3
        },
        "metallicFactor": 0.0,
        "metallicRoughnessTexture": {
          "index": 4
        }
      }
    },
    {
      "doubleSided": true,
      "name": "Table_1_1",
      "normalTexture": {
        "index": 8
      },
      "pbrMetallicRoughness": {
        "baseColorTexture": {
          "index": 6
        },
        "metallicFactor": 0.0,
        "metallicRoughnessTexture": {
          "index": 7
        }
      }
    },
    {
      "doubleSided": true,
      "name": "Table_2_2",
      "normalTexture": {
        "index": 11
      },
      "pbrMetallicRoughness": {
        "baseColorTexture": {
          "index": 9
        },
        "metallicRoughnessTexture": {
          "index": 10
        }
      }
    },
    {
      "doubleSided": true,
      "name": "Table_1_2",
      "normalTexture": {
        "index": 14
      },
      "pbrMetallicRoughness": {
        "baseColorTexture": {
          "index": 12
        },
        "metallicRoughnessTexture": {
          "index": 13
        }
      }
    }
  ],
  "meshes": [
    {
      "name": "Table3_Table_3_0",
      "primitives": [
        {
          "attributes": {
            "NORMAL": 1,
            "POSITION": 0,
            "TANGENT": 2,
            "TEXCOORD_0": 3,
            "TEXCOORD_1": 3,
            "TEXCOORD_2": 3
          },
          "indices": 4,
          "material": 1,
          "mode": 4
        }
      ]
    },
    {
      "name": "Table2_Table_2_2_0",
      "primitives": [
        {
          "attributes": {
            "NORMAL": 6,
            "POSITION": 5,
            "TANGENT": 7,
            "TEXCOORD_0": 8,
            "TEXCOORD_1": 8,
            "TEXCOORD_2": 8
          },
          "indices": 9,
          "material": 3,
          "mode": 4
        }
      ]
    },
    {
      "name": "Table2_Table_2_1_0",
      "primitives": [
        {
          "attributes": {
            "NORMAL": 11,
            "POSITION": 10,
            "TANGENT": 12,
            "TEXCOORD_0": 13
          },
          "indices": 14,
          "material": 0,
          "mode": 4
        }
      ]
    },
    {
      "name": "Table1_Table_1_2_0",
      "primitives": [
        {
          "attributes": {
            "NORMAL": 16,
            "POSITION": 15,
            "TANGENT": 17,
            "TEXCOORD_0": 18,
            "TEXCOORD_1": 18,
            "TEXCOORD_2": 18
          },
          "indices": 19,
          "material": 4,
          "mode": 4
        }
      ]
    },
    {
      "name": "Table1_Table_1_1_0",
      "primitives": [
        {
          "attributes": {
            "NORMAL": 21,
            "POSITION": 20,
            "TANGENT": 22,
            "TEXCOORD_0": 23,
            "TEXCOORD_1": 23,
            "TEXCOORD_2": 23
          },
          "indices": 24,
          "material": 2,
          "mode": 4
        }
      ]
    }
  ],
  "nodes": [
    {
      "children": [
        1
      ],
      "matrix": [
        1.0,
        0.0,
        0.0,
        0.0,
        0.0,
        2.220446049250313e-16,
        -1.0,
        0.0,
        0.0,
        1.0,
        2.220446049250313e-16,
        0.0,
        0.0,
        0.0,
        0.0,
        1.0
      ],
      "name": "Sketchfab_model"
    },
    {
      "children": [
        2
      ],
      "matrix": [
        0.009999999776482582,
        0.0,
        0.0,
        0.0,
        0.0,
        0.0,
        0.009999999776482582,
        0.0,
        0.0,
        -0.009999999776482582,
        0.0,
        0.0,
        0.0,
        0.0,
        0.0,
        1.0
      ],
      "name": "table.fbx"
    },
    {
      "children": [
        3,
        5,
        8
      ],
      "name": "RootNode"
    },
    {
      "children": [
        4
      ],
      "matrix": [
        1.0,
        0.0,
        0.0,
        0.0,
        0.0,
        2.220446049250313e-16,
        -1.0,
        0.0,
        0.0,
        1.0,
        2.220446049250313e-16,
        0.0,
        -146.40985107421875,
        0.0,
        0.0,
        1.0
      ],
      "name": "Table3"
    },
    {
      "mesh": 0,
      "name": "Table3_Table_3_0"
    },
    {
      "children": [
        6,
        7
      ],
      "matrix": [
        1.0,
        0.0,
        0.0,
        0.0,
        0.0,
        2.220446049250313e-16,
        -1.0,
        0.0,
        0.0,
        1.0,
        2.220446049250313e-16,
        0.0,
        0.0,
        -3.552713678800501e-15,
        -3.944304526105059e-31,
        1.0
      ],
      "name": "Table2"
    },
    {
      "mesh": 1,
      "name": "Table2_Table_2_2_0"
    },
    {
      "mesh": 2,
      "name": "Table2_Table_2_1_0"
    },
    {
      "children": [
        9,
        10
      ],
      "matrix": [
        1.0,
        0.0,
        0.0,
        0.0,
        0.0,
        2.220446049250313e-16,
        -1.0,
        0.0,
        0.0,
        1.0,
        2.220446049250313e-16,
        0.0,
        141.47398376464844,
        0.0,
        0.0,
        1.0
      ],
      "name": "Table1"
    },
    {
      "mesh": 3,
      "name": "Table1_Table_1_2_0"
    },
    {
      "mesh": 4,
      "name": "Table1_Table_1_1_0"
    }
  ],
  "samplers": [
    {
      "magFilter": 9729,
      "minFilter": 9987,
      "wrapS": 10497,
      "wrapT": 10497
    }
  ],
  "scene": 0,
  "scenes": [
    {
      "name": "Sketchfab_Scene",
      "nodes": [
        0
      ]
    }
  ],
  "textures": [
    {
      "sampler": 0,
      "source": 0
    },
    {
      "sampler": 0,
      "source": 1
    },
    {
      "sampler": 0,
      "source": 2
    },
    {
      "sampler": 0,
      "source": 3
    },
    {
      "sampler": 0,
      "source": 4
    },
    {
      "sampler": 0,
      "source": 5
    },
    {
      "sampler": 0,
      "source": 6
    },
    {
      "sampler": 0,
      "source": 7
    },
    {
      "sampler": 0,
      "source": 8
    },
    {
      "sampler": 0,
      "source": 9
    },
    {
      "sampler": 0,
      "source": 10
    },
    {
      "sampler": 0,
      "source": 11
    },
    {
      "sampler": 0,
      "source": 12
    },
    {
      "sampler": 0,
      "source": 13
    },
    {
      "sampler": 0,
      "source": 14
    }
  ]
}
