{
	"asset":{
		"generator":"Khronos glTF Blender I/O v4.3.47",
		"version":"2.0"
	},
	"scene":0,
	"scenes":[
		{
			"name":"Scene",
			"nodes":[
				0
			]
		}
	],
	"nodes":[
		{
			"mesh":0,
			"name":"Plane"
		}
	],
	"materials":[
		{
			"doubleSided":true,
			"name":"Material.001",
			"normalTexture":{
				"index":0
			},
			"pbrMetallicRoughness":{
				"baseColorTexture":{
					"index":1
				},
				"metallicFactor":0,
				"metallicRoughnessTexture":{
					"index":2
				}
			}
		}
	],
	"meshes":[
		{
			"name":"Plane.003",
			"primitives":[
				{
					"attributes":{
						"POSITION":0,
						"NORMAL":1,
						"TEXCOORD_0":2
					},
					"indices":3,
					"material":0
				}
			]
		}
	],
	"textures":[
		{
			"sampler":0,
			"source":0
		},
		{
			"sampler":0,
			"source":1
		},
		{
			"sampler":0,
			"source":2
		}
	],
	"images":[
		{
			"mimeType":"image/png",
			"name":"metal_0024_normal_opengl_4k",
			"uri":"Textures/metal_0024_normal_opengl_4k.png"
		},
		{
			"mimeType":"image/jpeg",
			"name":"metal_0024_color_4k",
			"uri":"Textures/metal_0024_color_4k.jpg"
		},
		{
			"mimeType":"image/png",
			"name":"metal_0024_roughness_4k",
			"uri":"Textures/metal_0024_roughness_4k.png"
		}
	],
	"accessors":[
		{
			"bufferView":0,
			"componentType":5126,
			"count":16641,
			"max":[
				10.000000953674316,
				0,
				10.000001907348633
			],
			"min":[
				-10.000000953674316,
				0,
				-10.000000953674316
			],
			"type":"VEC3"
		},
		{
			"bufferView":1,
			"componentType":5126,
			"count":16641,
			"type":"VEC3"
		},
		{
			"bufferView":2,
			"componentType":5126,
			"count":16641,
			"type":"VEC2"
		},
		{
			"bufferView":3,
			"componentType":5123,
			"count":98304,
			"type":"SCALAR"
		}
	],
	"bufferViews":[
		{
			"buffer":0,
			"byteLength":199692,
			"byteOffset":0,
			"target":34962
		},
		{
			"buffer":0,
			"byteLength":199692,
			"byteOffset":199692,
			"target":34962
		},
		{
			"buffer":0,
			"byteLength":133128,
			"byteOffset":399384,
			"target":34962
		},
		{
			"buffer":0,
			"byteLength":196608,
			"byteOffset":532512,
			"target":34963
		}
	],
	"samplers":[
		{
			"magFilter":9729,
			"minFilter":9987
		}
	],
	"buffers":[
		{
			"byteLength":729120,
			"uri":"FactoryWall.bin"
		}
	]
}
