{
	"asset":{
		"generator":"Khronos glTF Blender I/O v4.3.47",
		"version":"2.0"
	},
	"extensionsUsed":[
		"KHR_materials_specular",
		"KHR_materials_ior"
	],
	"scene":0,
	"scenes":[
		{
			"name":"Scene",
			"nodes":[
				0,
				1,
				2,
				3,
				4,
				5,
				6,
				7,
				8,
				9,
				10,
				11,
				12
			]
		}
	],
	"nodes":[
		{
			"mesh":0,
			"name":"Plane",
			"translation":[
				0.02041149139404297,
				-0.058739662170410156,
				0.02619457244873047
			]
		},
		{
			"mesh":1,
			"name":"LiniaZolta",
			"scale":[
				0.06725601851940155,
				0.06725601851940155,
				0.06725601851940155
			],
			"translation":[
				-2.5596132278442383,
				-0.058739662170410156,
				4.890267848968506
			]
		},
		{
			"mesh":2,
			"name":"LiniaZolta.001",
			"scale":[
				0.06725601851940155,
				0.06725601851940155,
				0.05835950747132301
			],
			"translation":[
				-1.5547833442687988,
				-0.058739662170410156,
				4.890267848968506
			]
		},
		{
			"mesh":3,
			"name":"LiniaZolta.003",
			"rotation":[
				-0.7071068286895752,
				0,
				-0.7071068286895752,
				0
			],
			"scale":[
				-0.15423379838466644,
				-0.19634179770946503,
				-0.010071929544210434
			],
			"translation":[
				-2.6179733276367188,
				-0.058739662170410156,
				-3.792102336883545
			]
		},
		{
			"mesh":4,
			"name":"LiniaZolta.005",
			"rotation":[
				-0.7071068286895752,
				0,
				-0.7071068286895752,
				0
			],
			"scale":[
				-0.15423379838466644,
				-0.19634179770946503,
				-0.010071929544210434
			],
			"translation":[
				-2.6179733276367188,
				-0.058739662170410156,
				-3.1625044345855713
			]
		},
		{
			"mesh":5,
			"name":"LiniaZolta.007",
			"rotation":[
				-0.7071068286895752,
				0,
				-0.7071068286895752,
				0
			],
			"scale":[
				-0.15423379838466644,
				-0.19634179770946503,
				-0.010071929544210434
			],
			"translation":[
				-2.6179733276367188,
				-0.058739662170410156,
				-4.432708263397217
			]
		},
		{
			"mesh":6,
			"name":"LiniaZolta.002",
			"rotation":[
				0,
				0.7071068286895752,
				0,
				0.7071068286895752
			],
			"scale":[
				0.06725601851940155,
				0.06725601851940155,
				0.06725601851940155
			],
			"translation":[
				5.955216407775879,
				-0.058739662170410156,
				-2.621074914932251
			]
		},
		{
			"mesh":7,
			"name":"LiniaZolta.004",
			"rotation":[
				0,
				0.7071068286895752,
				0,
				0.7071068286895752
			],
			"scale":[
				0.06725601851940155,
				0.06725601851940155,
				0.06725601851940155
			],
			"translation":[
				6.087733745574951,
				-0.058739662170410156,
				4.881499767303467
			]
		},
		{
			"mesh":8,
			"name":"LiniaZolta.006",
			"rotation":[
				0,
				0.7071068286895752,
				0,
				0.7071068286895752
			],
			"scale":[
				0.06725601851940155,
				0.06725601851940155,
				0.06725601851940155
			],
			"translation":[
				6.087733745574951,
				-0.058739662170410156,
				-1.6178011894226074
			]
		},
		{
			"mesh":9,
			"name":"man-walking-directions-button-yellow",
			"translation":[
				-2.029589891433716,
				-0.048739999532699585,
				3.5761899948120117
			]
		},
		{
			"mesh":10,
			"name":"man-walking-directions-button-yellow.001",
			"rotation":[
				0,
				0.7071068286895752,
				0,
				0.7071068286895752
			],
			"translation":[
				3.1804099082946777,
				-0.048739999532699585,
				-2.133810043334961
			]
		},
		{
			"mesh":11,
			"name":"man-walking-directions-button-yellow.002",
			"rotation":[
				0,
				0.7071068286895752,
				0,
				0.7071068286895752
			],
			"translation":[
				-0.03958800062537193,
				-0.048739999532699585,
				-2.133810043334961
			]
		},
		{
			"mesh":12,
			"name":"man-walking-directions-button-yellow.003",
			"translation":[
				-2.029589891433716,
				-0.048739999532699585,
				-0.11380600184202194
			]
		}
	],
	"materials":[
		{
			"doubleSided":true,
			"extensions":{
				"KHR_materials_specular":{
					"specularColorFactor":[
						1.399999976158142,
						1.399999976158142,
						1.399999976158142
					]
				},
				"KHR_materials_ior":{
					"ior":1.6000133752822876
				}
			},
			"name":"Material.001",
			"pbrMetallicRoughness":{
				"baseColorFactor":[
					0.14246927201747894,
					0.14247047901153564,
					0.14247047901153564,
					1
				],
				"metallicFactor":0,
				"metallicRoughnessTexture":{
					"index":0
				}
			}
		},
		{
			"doubleSided":true,
			"name":"Material.002",
			"pbrMetallicRoughness":{
				"baseColorFactor":[
					0.8003076910972595,
					0.6637457609176636,
					0,
					1
				],
				"metallicFactor":0,
				"roughnessFactor":0.364814817905426
			}
		},
		{
			"doubleSided":true,
			"name":"Material.003",
			"pbrMetallicRoughness":{
				"baseColorFactor":[
					0.7990983128547668,
					0.6653882265090942,
					0,
					1
				],
				"metallicFactor":0,
				"roughnessFactor":0.364814817905426
			}
		},
		{
			"doubleSided":true,
			"name":"Material.005",
			"pbrMetallicRoughness":{
				"baseColorFactor":[
					0.8003076910972595,
					0.6637457609176636,
					0,
					1
				],
				"metallicFactor":0,
				"roughnessFactor":0.364814817905426
			}
		},
		{
			"doubleSided":true,
			"name":"Material.007",
			"pbrMetallicRoughness":{
				"baseColorFactor":[
					0.8003076910972595,
					0.6637457609176636,
					0,
					1
				],
				"metallicFactor":0,
				"roughnessFactor":0.364814817905426
			}
		},
		{
			"doubleSided":true,
			"name":"Material.009",
			"pbrMetallicRoughness":{
				"baseColorFactor":[
					0.8003076910972595,
					0.6637457609176636,
					0,
					1
				],
				"metallicFactor":0,
				"roughnessFactor":0.364814817905426
			}
		},
		{
			"doubleSided":true,
			"name":"Material.011",
			"pbrMetallicRoughness":{
				"baseColorFactor":[
					0.8003076910972595,
					0.6637457609176636,
					0,
					1
				],
				"metallicFactor":0,
				"roughnessFactor":0.364814817905426
			}
		},
		{
			"doubleSided":true,
			"name":"Material.012",
			"pbrMetallicRoughness":{
				"baseColorFactor":[
					0.8003076910972595,
					0.6637457609176636,
					0,
					1
				],
				"metallicFactor":0,
				"roughnessFactor":0.364814817905426
			}
		},
		{
			"doubleSided":true,
			"name":"Material.013",
			"pbrMetallicRoughness":{
				"baseColorFactor":[
					0.8003076910972595,
					0.6637457609176636,
					0,
					1
				],
				"metallicFactor":0,
				"roughnessFactor":0.364814817905426
			}
		},
		{
			"alphaMode":"BLEND",
			"doubleSided":true,
			"name":"man-walking-directions-button-yellow",
			"pbrMetallicRoughness":{
				"baseColorTexture":{
					"index":1
				},
				"metallicFactor":0,
				"roughnessFactor":0.36500000953674316
			}
		},
		{
			"alphaMode":"BLEND",
			"doubleSided":true,
			"name":"man-walking-directions-button-yellow.001",
			"pbrMetallicRoughness":{
				"baseColorTexture":{
					"index":2
				},
				"metallicFactor":0,
				"roughnessFactor":0.36500000953674316
			}
		},
		{
			"alphaMode":"BLEND",
			"doubleSided":true,
			"name":"man-walking-directions-button-yellow.002",
			"pbrMetallicRoughness":{
				"baseColorTexture":{
					"index":3
				},
				"metallicFactor":0,
				"roughnessFactor":0.36500000953674316
			}
		},
		{
			"alphaMode":"BLEND",
			"doubleSided":true,
			"name":"man-walking-directions-button-yellow.003",
			"pbrMetallicRoughness":{
				"baseColorTexture":{
					"index":4
				},
				"metallicFactor":0,
				"roughnessFactor":0.36500000953674316
			}
		}
	],
	"meshes":[
		{
			"name":"Plane",
			"primitives":[
				{
					"attributes":{
						"POSITION":0,
						"NORMAL":1,
						"TEXCOORD_0":2,
						"COLOR_0":3,
						"COLOR_1":4
					},
					"indices":5,
					"material":0
				}
			]
		},
		{
			"name":"Plane.001",
			"primitives":[
				{
					"attributes":{
						"POSITION":6,
						"NORMAL":7,
						"TEXCOORD_0":8
					},
					"indices":9,
					"material":1
				}
			]
		},
		{
			"name":"Plane.002",
			"primitives":[
				{
					"attributes":{
						"POSITION":10,
						"NORMAL":11,
						"TEXCOORD_0":12
					},
					"indices":9,
					"material":2
				}
			]
		},
		{
			"name":"Plane.004",
			"primitives":[
				{
					"attributes":{
						"POSITION":13,
						"NORMAL":14,
						"TEXCOORD_0":15
					},
					"indices":9,
					"material":3
				}
			]
		},
		{
			"name":"Plane.006",
			"primitives":[
				{
					"attributes":{
						"POSITION":16,
						"NORMAL":17,
						"TEXCOORD_0":18
					},
					"indices":9,
					"material":4
				}
			]
		},
		{
			"name":"Plane.008",
			"primitives":[
				{
					"attributes":{
						"POSITION":19,
						"NORMAL":20,
						"TEXCOORD_0":21
					},
					"indices":9,
					"material":5
				}
			]
		},
		{
			"name":"Plane.010",
			"primitives":[
				{
					"attributes":{
						"POSITION":22,
						"NORMAL":23,
						"TEXCOORD_0":24
					},
					"indices":9,
					"material":6
				}
			]
		},
		{
			"name":"Plane.012",
			"primitives":[
				{
					"attributes":{
						"POSITION":25,
						"NORMAL":26,
						"TEXCOORD_0":27
					},
					"indices":9,
					"material":7
				}
			]
		},
		{
			"name":"Plane.013",
			"primitives":[
				{
					"attributes":{
						"POSITION":28,
						"NORMAL":29,
						"TEXCOORD_0":30
					},
					"indices":9,
					"material":8
				}
			]
		},
		{
			"name":"man-walking-directions-button-yellow",
			"primitives":[
				{
					"attributes":{
						"POSITION":31,
						"NORMAL":32,
						"TEXCOORD_0":33
					},
					"indices":34,
					"material":9
				}
			]
		},
		{
			"name":"man-walking-directions-button-yellow.001",
			"primitives":[
				{
					"attributes":{
						"POSITION":35,
						"NORMAL":36,
						"TEXCOORD_0":37
					},
					"indices":34,
					"material":10
				}
			]
		},
		{
			"name":"man-walking-directions-button-yellow.002",
			"primitives":[
				{
					"attributes":{
						"POSITION":38,
						"NORMAL":39,
						"TEXCOORD_0":40
					},
					"indices":34,
					"material":11
				}
			]
		},
		{
			"name":"man-walking-directions-button-yellow.003",
			"primitives":[
				{
					"attributes":{
						"POSITION":41,
						"NORMAL":42,
						"TEXCOORD_0":43
					},
					"indices":34,
					"material":12
				}
			]
		}
	],
	"textures":[
		{
			"sampler":0,
			"source":0
		},
		{
			"sampler":1,
			"source":1
		},
		{
			"sampler":1,
			"source":1
		},
		{
			"sampler":1,
			"source":1
		},
		{
			"sampler":1,
			"source":1
		}
	],
	"images":[
		{
			"mimeType":"image/png",
			"name":"TCom_Various_EnergyPole_2K_albedo",
			"uri":"Textures/TCom_Various_EnergyPole_2K_albedo.png"
		},
		{
			"mimeType":"image/png",
			"name":"man-walking-directions-button-yellow",
			"uri":"Textures/man-walking-directions-button-yellow.png"
		}
	],
	"accessors":[
		{
			"bufferView":0,
			"componentType":5126,
			"count":4,
			"max":[
				4.934868335723877,
				0,
				4.934868335723877
			],
			"min":[
				-4.934868335723877,
				0,
				-4.934868335723877
			],
			"type":"VEC3"
		},
		{
			"bufferView":1,
			"componentType":5126,
			"count":4,
			"type":"VEC3"
		},
		{
			"bufferView":2,
			"componentType":5126,
			"count":4,
			"type":"VEC2"
		},
		{
			"bufferView":3,
			"componentType":5121,
			"count":4,
			"normalized":true,
			"type":"VEC4"
		},
		{
			"bufferView":4,
			"componentType":5123,
			"count":4,
			"normalized":true,
			"type":"VEC4"
		},
		{
			"bufferView":5,
			"componentType":5123,
			"count":6,
			"type":"SCALAR"
		},
		{
			"bufferView":6,
			"componentType":5126,
			"count":34,
			"max":[
				1,
				0.029737116768956184,
				1
			],
			"min":[
				-1,
				0,
				-112.64646911621094
			],
			"type":"VEC3"
		},
		{
			"bufferView":7,
			"componentType":5126,
			"count":34,
			"type":"VEC3"
		},
		{
			"bufferView":8,
			"componentType":5126,
			"count":34,
			"type":"VEC2"
		},
		{
			"bufferView":9,
			"componentType":5123,
			"count":66,
			"type":"SCALAR"
		},
		{
			"bufferView":10,
			"componentType":5126,
			"count":34,
			"max":[
				1,
				0.029737116768956184,
				1
			],
			"min":[
				-1,
				0,
				-112.64646911621094
			],
			"type":"VEC3"
		},
		{
			"bufferView":11,
			"componentType":5126,
			"count":34,
			"type":"VEC3"
		},
		{
			"bufferView":12,
			"componentType":5126,
			"count":34,
			"type":"VEC2"
		},
		{
			"bufferView":13,
			"componentType":5126,
			"count":34,
			"max":[
				1,
				0.029737116768956184,
				1
			],
			"min":[
				-1,
				0,
				-112.64646911621094
			],
			"type":"VEC3"
		},
		{
			"bufferView":14,
			"componentType":5126,
			"count":34,
			"type":"VEC3"
		},
		{
			"bufferView":15,
			"componentType":5126,
			"count":34,
			"type":"VEC2"
		},
		{
			"bufferView":16,
			"componentType":5126,
			"count":34,
			"max":[
				1,
				0.029737116768956184,
				1
			],
			"min":[
				-1,
				0,
				-112.64646911621094
			],
			"type":"VEC3"
		},
		{
			"bufferView":17,
			"componentType":5126,
			"count":34,
			"type":"VEC3"
		},
		{
			"bufferView":18,
			"componentType":5126,
			"count":34,
			"type":"VEC2"
		},
		{
			"bufferView":19,
			"componentType":5126,
			"count":34,
			"max":[
				1,
				0.029737116768956184,
				1
			],
			"min":[
				-1,
				0,
				-112.64646911621094
			],
			"type":"VEC3"
		},
		{
			"bufferView":20,
			"componentType":5126,
			"count":34,
			"type":"VEC3"
		},
		{
			"bufferView":21,
			"componentType":5126,
			"count":34,
			"type":"VEC2"
		},
		{
			"bufferView":22,
			"componentType":5126,
			"count":34,
			"max":[
				1,
				0.029737116768956184,
				1
			],
			"min":[
				-1,
				0,
				-112.64646911621094
			],
			"type":"VEC3"
		},
		{
			"bufferView":23,
			"componentType":5126,
			"count":34,
			"type":"VEC3"
		},
		{
			"bufferView":24,
			"componentType":5126,
			"count":34,
			"type":"VEC2"
		},
		{
			"bufferView":25,
			"componentType":5126,
			"count":34,
			"max":[
				1,
				0.029737116768956184,
				1
			],
			"min":[
				-1,
				0,
				-112.64646911621094
			],
			"type":"VEC3"
		},
		{
			"bufferView":26,
			"componentType":5126,
			"count":34,
			"type":"VEC3"
		},
		{
			"bufferView":27,
			"componentType":5126,
			"count":34,
			"type":"VEC2"
		},
		{
			"bufferView":28,
			"componentType":5126,
			"count":34,
			"max":[
				1,
				0.029737116768956184,
				1
			],
			"min":[
				-1,
				0,
				-112.64646911621094
			],
			"type":"VEC3"
		},
		{
			"bufferView":29,
			"componentType":5126,
			"count":34,
			"type":"VEC3"
		},
		{
			"bufferView":30,
			"componentType":5126,
			"count":34,
			"type":"VEC2"
		},
		{
			"bufferView":31,
			"componentType":5126,
			"count":24,
			"max":[
				0.5,
				0.009999999776482582,
				0.5
			],
			"min":[
				-0.5,
				0,
				-0.5
			],
			"type":"VEC3"
		},
		{
			"bufferView":32,
			"componentType":5126,
			"count":24,
			"type":"VEC3"
		},
		{
			"bufferView":33,
			"componentType":5126,
			"count":24,
			"type":"VEC2"
		},
		{
			"bufferView":34,
			"componentType":5123,
			"count":36,
			"type":"SCALAR"
		},
		{
			"bufferView":35,
			"componentType":5126,
			"count":24,
			"max":[
				0.5,
				0.009999999776482582,
				0.5
			],
			"min":[
				-0.5,
				0,
				-0.5
			],
			"type":"VEC3"
		},
		{
			"bufferView":36,
			"componentType":5126,
			"count":24,
			"type":"VEC3"
		},
		{
			"bufferView":37,
			"componentType":5126,
			"count":24,
			"type":"VEC2"
		},
		{
			"bufferView":38,
			"componentType":5126,
			"count":24,
			"max":[
				0.5,
				0.009999999776482582,
				0.5
			],
			"min":[
				-0.5,
				0,
				-0.5
			],
			"type":"VEC3"
		},
		{
			"bufferView":39,
			"componentType":5126,
			"count":24,
			"type":"VEC3"
		},
		{
			"bufferView":40,
			"componentType":5126,
			"count":24,
			"type":"VEC2"
		},
		{
			"bufferView":41,
			"componentType":5126,
			"count":24,
			"max":[
				0.5,
				0.009999999776482582,
				0.5
			],
			"min":[
				-0.5,
				0,
				-0.5
			],
			"type":"VEC3"
		},
		{
			"bufferView":42,
			"componentType":5126,
			"count":24,
			"type":"VEC3"
		},
		{
			"bufferView":43,
			"componentType":5126,
			"count":24,
			"type":"VEC2"
		}
	],
	"bufferViews":[
		{
			"buffer":0,
			"byteLength":48,
			"byteOffset":0,
			"target":34962
		},
		{
			"buffer":0,
			"byteLength":48,
			"byteOffset":48,
			"target":34962
		},
		{
			"buffer":0,
			"byteLength":32,
			"byteOffset":96,
			"target":34962
		},
		{
			"buffer":0,
			"byteLength":16,
			"byteOffset":128,
			"target":34962
		},
		{
			"buffer":0,
			"byteLength":32,
			"byteOffset":144,
			"target":34962
		},
		{
			"buffer":0,
			"byteLength":12,
			"byteOffset":176,
			"target":34963
		},
		{
			"buffer":0,
			"byteLength":408,
			"byteOffset":188,
			"target":34962
		},
		{
			"buffer":0,
			"byteLength":408,
			"byteOffset":596,
			"target":34962
		},
		{
			"buffer":0,
			"byteLength":272,
			"byteOffset":1004,
			"target":34962
		},
		{
			"buffer":0,
			"byteLength":132,
			"byteOffset":1276,
			"target":34963
		},
		{
			"buffer":0,
			"byteLength":408,
			"byteOffset":1408,
			"target":34962
		},
		{
			"buffer":0,
			"byteLength":408,
			"byteOffset":1816,
			"target":34962
		},
		{
			"buffer":0,
			"byteLength":272,
			"byteOffset":2224,
			"target":34962
		},
		{
			"buffer":0,
			"byteLength":408,
			"byteOffset":2496,
			"target":34962
		},
		{
			"buffer":0,
			"byteLength":408,
			"byteOffset":2904,
			"target":34962
		},
		{
			"buffer":0,
			"byteLength":272,
			"byteOffset":3312,
			"target":34962
		},
		{
			"buffer":0,
			"byteLength":408,
			"byteOffset":3584,
			"target":34962
		},
		{
			"buffer":0,
			"byteLength":408,
			"byteOffset":3992,
			"target":34962
		},
		{
			"buffer":0,
			"byteLength":272,
			"byteOffset":4400,
			"target":34962
		},
		{
			"buffer":0,
			"byteLength":408,
			"byteOffset":4672,
			"target":34962
		},
		{
			"buffer":0,
			"byteLength":408,
			"byteOffset":5080,
			"target":34962
		},
		{
			"buffer":0,
			"byteLength":272,
			"byteOffset":5488,
			"target":34962
		},
		{
			"buffer":0,
			"byteLength":408,
			"byteOffset":5760,
			"target":34962
		},
		{
			"buffer":0,
			"byteLength":408,
			"byteOffset":6168,
			"target":34962
		},
		{
			"buffer":0,
			"byteLength":272,
			"byteOffset":6576,
			"target":34962
		},
		{
			"buffer":0,
			"byteLength":408,
			"byteOffset":6848,
			"target":34962
		},
		{
			"buffer":0,
			"byteLength":408,
			"byteOffset":7256,
			"target":34962
		},
		{
			"buffer":0,
			"byteLength":272,
			"byteOffset":7664,
			"target":34962
		},
		{
			"buffer":0,
			"byteLength":408,
			"byteOffset":7936,
			"target":34962
		},
		{
			"buffer":0,
			"byteLength":408,
			"byteOffset":8344,
			"target":34962
		},
		{
			"buffer":0,
			"byteLength":272,
			"byteOffset":8752,
			"target":34962
		},
		{
			"buffer":0,
			"byteLength":288,
			"byteOffset":9024,
			"target":34962
		},
		{
			"buffer":0,
			"byteLength":288,
			"byteOffset":9312,
			"target":34962
		},
		{
			"buffer":0,
			"byteLength":192,
			"byteOffset":9600,
			"target":34962
		},
		{
			"buffer":0,
			"byteLength":72,
			"byteOffset":9792,
			"target":34963
		},
		{
			"buffer":0,
			"byteLength":288,
			"byteOffset":9864,
			"target":34962
		},
		{
			"buffer":0,
			"byteLength":288,
			"byteOffset":10152,
			"target":34962
		},
		{
			"buffer":0,
			"byteLength":192,
			"byteOffset":10440,
			"target":34962
		},
		{
			"buffer":0,
			"byteLength":288,
			"byteOffset":10632,
			"target":34962
		},
		{
			"buffer":0,
			"byteLength":288,
			"byteOffset":10920,
			"target":34962
		},
		{
			"buffer":0,
			"byteLength":192,
			"byteOffset":11208,
			"target":34962
		},
		{
			"buffer":0,
			"byteLength":288,
			"byteOffset":11400,
			"target":34962
		},
		{
			"buffer":0,
			"byteLength":288,
			"byteOffset":11688,
			"target":34962
		},
		{
			"buffer":0,
			"byteLength":192,
			"byteOffset":11976,
			"target":34962
		}
	],
	"samplers":[
		{
			"magFilter":9729,
			"minFilter":9987
		},
		{
			"magFilter":9729,
			"minFilter":9987,
			"wrapS":33071,
			"wrapT":33071
		}
	],
	"buffers":[
		{
			"byteLength":12168,
			"uri":"factoryFloorYellowLine.bin"
		}
	]
}
